<!-- Generated by IcoMoon.io -->
<svg version="1.1" xmlns="http://www.w3.org/2000/svg" width="75" height="50" viewBox="0 0 1024 1024">
<title></title>
<g id="icomoon-ignore">
</g>
<path fill="#5b4638" d="M469.632 0c-33.579 1.323-64.64 15.787-94.805 29.227-22.126 10.814-48.513 21.021-75.828 29.060l-3.703 0.934c-27.093 7.509-55.467 15.104-77.397 33.621-9.472 7.68-15.189 18.731-22.571 28.245-13.184 20.736-19.115 45.525-19.499 69.888 1.536 26.027 9.216 51.2 16.043 76.203 15.701 53.845 34.432 106.795 51.072 160.384 15.616 49.536 29.995 100.011 55.211 145.749 8.405 16.811 14.933 34.475 22.827 51.456 1.152 2.859 2.219 6.741 6.059 6.357 5.803-0.512 10.368-4.907 15.701-6.997 35.328-17.664 74.24-27.392 113.28-31.957 30.208-3.157 61.013-3.328 90.923 2.304 30.72 6.955 60.459 18.176 89.259 30.891 15.36 7.339 30.677 14.848 46.421 21.248 2.048 1.707 5.76 2.475 6.827-0.683 9.344-13.952 20.011-27.093 28.459-41.643 21.12-45.269 22.272-97.237 44.288-142.123 15.275-30.763 38.059-57.045 54.016-87.381 7.467-11.349 18.389-19.925 25.088-31.872 18.645-28.544 33.28-59.648 44.8-91.733 4.352-12.501 7.339-26.112 3.84-39.211-2.56-12.757-8.619-24.32-13.568-36.181-2.817-10.686-6.879-20.056-12.125-28.623l0.263 0.463c-17.365-28.843-45.653-49.024-74.368-65.536-44.587-25.173-93.696-41.344-142.976-54.613-46.279-12.863-100.703-22.457-156.588-26.856l-3.071-0.194c-4.196-0.294-9.093-0.461-14.029-0.461-1.353 0-2.703 0.013-4.050 0.038l0.202-0.003zM431.701 25.856c-11.136 9.515-15.488 24.277-19.968 37.675-7.168 24.235-11.221 49.621-8.832 74.923 2.731 45.312 8.405 90.453 14.080 135.467 7.68 57.685 16.512 115.2 28.885 172.117 1.109 7.040 2.731 14.805 2.133 21.76-4.907-7.467-7.765-16.341-11.008-24.747-10.667-32.64-18.432-66.091-25.771-99.584-12.262-53.888-20.838-117.072-23.885-181.702l-0.093-2.49c-1.067-35.968-0.171-73.643 15.787-106.709 5.035-9.643 11.051-19.627 20.48-25.472 2.414-1.332 5.291-2.116 8.351-2.116 0.334 0 0.666 0.009 0.996 0.028l-0.046-0.002zM278.016 75.52c5.461 0 5.931 6.784 7.168 10.752 11.349 34.048 18.005 69.461 28.971 103.595 7.424 27.691 10.155 56.448 13.141 84.949 4.139 44.331 4.608 88.96 10.496 133.12 1.109 8.491 3.499 16.768 5.077 25.173 0.427 2.859-2.517 2.091-3.541 0.597-6.315-6.869-7.808-16.683-10.496-25.259-6.827-27.52-10.325-55.68-14.251-83.712-7.424-56.149-12.245-112.64-22.571-168.32-6.741-26.112-15.189-51.84-19.627-78.421 0.256-2.176 3.968-2.048 5.632-2.475zM195.797 153.899c9.771 2.389 15.573 11.435 21.845 18.517 17.067 22.827 23.040 51.371 29.653 78.635 12.075 53.973 19.029 108.928 30.933 162.987 5.589 28.416 12.501 56.576 21.632 84.096 0.597 2.176 1.493 5.675 1.621 7.253-9.941-18.347-16.768-38.229-24.107-57.728-25.515-72.448-35.115-149.163-55.467-223.061-5.675-20.395-13.141-40.533-25.429-57.941-2.005-3.755-3.413-8.704-1.579-12.672 0.256-0.171 0.597-0.128 0.896-0.085zM735.36 716.928c-5.803 0.299-13.227 4.693-11.776 11.392 4.011 9.301 14.251 13.141 22.443 17.749 18.816 9.216 40.021 12.373 57.941 23.296 3.925 2.56 6.357 8.405 2.731 12.245-7.68 11.349-20.053 18.773-30.848 27.051-15.872 11.349-33.152 21.76-45.099 37.504-2.816 4.565-1.749 11.392 3.499 13.653 4.651 3.371 10.368 0.768 14.421-2.176 22.101-12.544 42.453-27.904 63.061-42.752 13.653-10.197 27.477-20.352 39.509-32.427 3.627-5.76-1.28-11.691-5.035-15.829-11.648-12.16-26.453-20.779-41.173-28.587-17.988-9.648-38.866-16.999-60.928-20.931l-1.28-0.189c-1.117-0.083-2.42-0.131-3.733-0.131s-2.616 0.047-3.906 0.141l0.173-0.010zM254.293 718.080c-22.485 5.717-42.539 17.92-62.891 28.715-18.133 10.368-36.437 21.163-51.413 35.883-4.573 5.214-7.363 12.092-7.363 19.621 0 0.422 0.009 0.843 0.026 1.261l-0.002-0.060c2.773 4.608 8.533 5.973 12.843 8.789 36.352 18.859 74.027 35.072 112.213 49.835 5.632 1.792 11.307 4.821 17.323 4.565 6.741-0.853 13.184-8.704 9.088-15.189-6.229-10.368-17.92-15.403-27.733-21.589-23.339-12.928-49.237-21.845-69.803-39.168-1.963-3.883 4.011-5.461 6.059-7.68 23.424-16.853 52.437-25.301 73.088-45.952 3.797-3.84 6.997-11.051 2.048-15.275-3.669-3.115-8.789-3.712-13.483-3.755zM600.533 751.915c-18.347 1.152-35.627 18.389-33.024 37.376 1.365 11.051 3.797 22.4 9.728 31.957 5.12 7.68 14.080 12.203 23.296 12.245 11.648 1.323 25.173-2.517 30.976-13.568 5.845-10.112 9.045-21.931 8.747-33.579-1.621-19.627-19.883-36.053-39.723-34.432zM408.96 752.341c-19.797 1.195-34.432 21.547-32.853 40.661 0.469 18.944 13.44 38.485 32.64 42.411 15.019 2.56 30.293-8.107 34.261-22.613 5.333-14.933 5.632-32.469-1.877-46.72-6.699-10.667-20.395-13.952-32.171-13.739zM413.739 780.203c10.283 2.731 12.544 20.053 1.92 23.808-6.016 1.451-10.197-5.12-9.984-10.411-0.341-5.419 2.133-12.245 8.064-13.397zM603.051 786.304c4.139 0 9.643 3.029 8.107 7.979-0.555 7.296-9.173 14.208-16.085 9.643-5.632-2.987-7.339-12.629-0.853-15.701 2.351-1.22 5.132-1.936 8.081-1.936 0.264 0 0.527 0.006 0.788 0.017l-0.037-0.001zM452.949 913.323c-23.595 2.176-44.544 14.293-65.792 23.851-12.971 6.656-28.245 13.312-42.88 7.979-16.085-5.12-30.165-14.933-45.184-22.187-3.2-0.555-2.603 3.285-2.005 5.205 3.456 22.613 5.504 47.019 19.371 66.133 14.421 18.645 38.485 26.368 61.141 28.459 34.005 3.072 70.059-5.035 96.896-26.837 13.184-11.179 24.363-26.923 24.96-44.757-0.256-13.824-10.411-25.429-22.357-31.317-6.772-4.102-14.955-6.53-23.706-6.53-0.156 0-0.312 0.001-0.467 0.002h0.024zM563.029 913.664c-16.896 2.219-34.773 11.179-41.472 27.733-5.504 15.275 1.451 31.915 11.605 43.52 18.176 21.717 45.653 33.835 73.301 37.717 24.619 3.328 50.603 0.597 73.131-10.24 18.688-9.6 32.725-27.947 36.267-48.725 2.731-12.416 3.456-25.173 5.291-37.717-2.816-3.328-6.315 1.621-9.301 2.219-14.379 6.059-27.605 15.659-43.093 18.56-15.488 1.024-29.312-7.339-43.307-12.501-18.347-7.595-36.309-17.195-56.107-20.395-1.363-0.128-2.948-0.201-4.55-0.201-0.621 0-1.239 0.011-1.854 0.033l0.089-0.002zM440.107 696.448c-2.987 0-6.101 0.597-9.216 1.28-7.53 1.87-13.984 4.091-20.175 6.799l0.805-0.314c-6.4 2.603-12.459 5.419-17.365 7.68-1.95 0.959-5.016 2.28-8.127 3.514l-1.174 0.411c-0.552 0.091-1.189 0.144-1.837 0.144-2.183 0-4.229-0.592-5.984-1.624l0.055 0.030c-2.645-1.579-5.12-4.309-6.016-10.88l-11.52 1.621c1.323 9.301 5.973 15.787 11.52 19.2 5.547 3.371 11.435 3.84 16.128 2.859 3.627-0.768 6.827-2.475 11.776-4.736s10.88-5.035 16.939-7.509c6.101-2.475 12.288-4.693 17.493-5.888 1.84-0.551 3.955-0.868 6.144-0.868 1.632 0 3.223 0.176 4.754 0.511l-0.147-0.027c5.973 2.56 8.107 5.547 9.173 7.637 1.067 2.133 1.28 2.859 1.28 2.859l11.221-2.56c0 0 0.085-1.024-2.133-5.461-3.307-5.968-8.489-10.556-14.738-13.030l-0.196-0.068c-2.343-1.006-5.069-1.592-7.933-1.592-0.256 0-0.511 0.005-0.765 0.014l0.037-0.001zM557.184 864.427c-1.755 0.045-3.31 0.862-4.344 2.123l-0.008 0.010c0 0-5.205 6.315-12.203 12.587-7.040 6.315-16.213 11.947-21.035 12.075-4.779 0.128-13.397-5.035-20.053-11.093-6.613-5.973-11.392-12.117-11.392-12.117-1.059-1.537-2.81-2.531-4.792-2.531-3.205 0-5.803 2.598-5.803 5.803 0 1.482 0.555 2.834 1.469 3.859l-0.005-0.006c0 0 5.291 6.827 12.757 13.611 7.467 6.827 16.939 14.379 28.16 14.080 11.051-0.341 20.651-8.107 28.416-15.019 7.765-6.955 13.44-13.867 13.44-13.867 0.836-0.999 1.344-2.297 1.344-3.714 0-3.205-2.598-5.803-5.803-5.803-0.053 0-0.105 0.001-0.157 0.002h0.008zM469.632 0.043c-33.579 1.28-64.64 15.701-94.805 29.184-22.126 10.814-48.513 21.021-75.828 29.060l-3.703 0.934c-27.093 7.509-55.467 15.104-77.397 33.621-9.472 7.68-15.189 18.773-22.571 28.288-13.184 20.693-19.115 45.483-19.499 69.845 1.536 26.027 9.216 51.2 16.043 76.203 15.701 53.888 34.432 106.795 51.072 160.384 15.616 49.536 29.995 100.011 55.211 145.792 8.405 16.768 14.933 34.432 22.827 51.413 1.152 2.859 2.219 6.741 6.059 6.4 5.803-0.555 10.368-4.949 15.701-7.040 35.328-17.664 74.24-27.349 113.28-31.957 30.208-3.157 61.013-3.328 90.923 2.347 30.72 6.955 60.459 18.133 89.259 30.848 15.36 7.339 30.677 14.848 46.421 21.248 2.048 1.707 5.76 2.475 6.827-0.683 9.344-13.952 20.011-27.093 28.459-41.6 21.12-45.312 22.272-97.28 44.288-142.165 15.275-30.763 38.059-57.003 54.016-87.339 7.467-11.349 18.389-19.968 25.088-31.872 18.645-28.587 33.28-59.733 44.8-91.776 4.352-12.501 7.339-26.112 3.84-39.211-2.56-12.715-8.619-24.32-13.568-36.181-2.821-10.67-6.883-20.026-12.125-28.579l0.263 0.462c-17.365-28.843-45.653-49.067-74.368-65.536-44.587-25.216-93.696-41.387-142.976-54.656-46.279-12.863-100.703-22.457-156.588-26.856l-3.071-0.194c-4.043-0.273-8.764-0.428-13.521-0.428-1.532 0-3.060 0.016-4.584 0.048l0.227-0.004zM431.701 25.899c-11.136 9.472-15.488 24.235-19.968 37.675-7.168 24.192-11.221 49.621-8.832 74.88 2.731 45.312 8.405 90.453 14.080 135.467 7.68 57.685 16.512 115.243 28.885 172.117 1.109 7.040 2.731 14.805 2.133 21.76-4.907-7.467-7.765-16.341-11.008-24.747-10.667-32.64-18.432-66.091-25.771-99.584-12.259-53.874-20.835-117.042-23.885-181.657l-0.094-2.493c-1.067-36.011-0.171-73.685 15.787-106.752 5.035-9.6 11.051-19.627 20.48-25.472 2.414-1.332 5.291-2.116 8.351-2.116 0.334 0 0.666 0.009 0.996 0.028l-0.046-0.002zM278.016 75.52c5.461 0 5.931 6.827 7.168 10.752 11.349 34.048 18.005 69.461 28.971 103.637 7.424 27.648 10.155 56.405 13.141 84.907 4.139 44.373 4.608 89.003 10.496 133.12 1.109 8.491 3.499 16.811 5.077 25.173 0.427 2.901-2.517 2.133-3.541 0.597-6.315-6.827-7.808-16.64-10.496-25.259-6.827-27.52-10.325-55.637-14.251-83.712-7.424-56.107-12.245-112.64-22.571-168.32-6.741-26.112-15.189-51.84-19.627-78.421 0.256-2.176 3.968-2.048 5.632-2.475zM195.797 153.941c9.771 2.347 15.573 11.392 21.845 18.475 17.067 22.827 23.040 51.371 29.653 78.635 12.075 53.973 19.029 108.971 30.933 162.987 5.589 28.416 12.501 56.619 21.632 84.096 0.597 2.176 1.493 5.675 1.621 7.253-9.941-18.347-16.768-38.229-24.107-57.685-25.515-72.533-35.115-149.205-55.467-223.147-5.675-20.352-13.141-40.533-25.429-57.899-2.005-3.712-3.413-8.704-1.579-12.629 0.256-0.171 0.597-0.128 0.896-0.085zM735.36 716.928c-5.803 0.299-13.227 4.693-11.776 11.435 4.011 9.259 14.251 13.099 22.443 17.749 18.816 9.173 40.021 12.331 57.941 23.253 3.925 2.56 6.357 8.405 2.731 12.245-7.68 11.392-20.053 18.773-30.848 27.051-15.872 11.349-33.152 21.76-45.099 37.504-2.816 4.565-1.749 11.392 3.499 13.653 4.651 3.371 10.368 0.811 14.421-2.133 22.101-12.587 42.453-27.947 63.061-42.752 13.653-10.24 27.477-20.395 39.509-32.469 3.627-5.76-1.28-11.691-5.035-15.787-11.648-12.203-26.453-20.821-41.173-28.672-17.99-9.62-38.871-16.943-60.933-20.848l-1.275-0.187c-1.209-0.097-2.617-0.153-4.038-0.153-1.206 0-2.404 0.040-3.59 0.119l0.161-0.009zM254.251 718.165c-22.485 5.675-42.539 17.92-62.891 28.672-18.133 10.368-36.437 21.205-51.413 35.925-4.572 5.214-7.361 12.091-7.361 19.619 0 0.408 0.008 0.814 0.024 1.218l-0.002-0.058c2.773 4.651 8.533 5.973 12.843 8.789 36.352 18.859 74.027 35.115 112.213 49.835 5.632 1.792 11.307 4.821 17.323 4.608 6.741-0.853 13.184-8.747 9.088-15.232-6.229-10.368-17.92-15.403-27.733-21.589-23.339-12.928-49.237-21.845-69.803-39.168-1.963-3.84 4.011-5.461 6.059-7.68 23.424-16.811 52.437-25.259 73.088-45.952 3.797-3.84 6.997-11.008 2.048-15.232-3.669-3.157-8.789-3.755-13.483-3.755zM600.491 751.957c-18.347 1.195-35.627 18.432-33.024 37.376 1.365 11.093 3.797 22.443 9.728 32 5.12 7.637 14.080 12.16 23.296 12.245 11.648 1.28 25.173-2.56 30.976-13.611 5.845-10.069 9.045-21.931 8.747-33.579-1.621-19.627-19.883-36.011-39.723-34.432zM408.917 752.384c-19.797 1.195-34.432 21.547-32.853 40.661 0.469 18.944 13.44 38.485 32.64 42.453 15.019 2.517 30.293-8.107 34.261-22.613 5.333-14.933 5.632-32.512-1.877-46.763-6.699-10.624-20.395-13.952-32.171-13.739zM413.696 780.288c10.283 2.688 12.544 20.053 1.92 23.765-6.016 1.451-10.197-5.12-9.984-10.411-0.341-5.419 2.133-12.245 8.064-13.355zM603.008 786.347c4.139 0 9.643 3.072 8.107 7.979-0.555 7.339-9.173 14.208-16.085 9.685-5.632-3.029-7.339-12.672-0.853-15.744 2.351-1.22 5.132-1.936 8.081-1.936 0.264 0 0.527 0.006 0.788 0.017l-0.037-0.001zM452.907 913.365c-23.595 2.219-44.544 14.336-65.792 23.893-12.971 6.613-28.245 13.269-42.88 7.936-16.085-5.077-30.165-14.933-45.184-22.187-3.2-0.512-2.603 3.328-2.005 5.205 3.456 22.613 5.504 47.019 19.371 66.133 14.421 18.688 38.485 26.411 61.141 28.459 34.005 3.072 70.059-5.035 96.896-26.837 13.184-11.179 24.363-26.88 24.96-44.757-0.256-13.824-10.411-25.429-22.357-31.317-6.772-4.102-14.955-6.53-23.706-6.53-0.156 0-0.312 0.001-0.467 0.002h0.024zM562.987 913.707c-16.896 2.219-34.773 11.179-41.472 27.733-5.504 15.317 1.451 31.915 11.605 43.563 18.176 21.675 45.653 33.792 73.301 37.675 24.619 3.328 50.603 0.64 73.131-10.24 18.688-9.6 32.725-27.947 36.267-48.725 2.731-12.373 3.456-25.173 5.291-37.717-2.816-3.285-6.315 1.664-9.301 2.219-14.379 6.101-27.605 15.659-43.093 18.603-15.488 1.024-29.312-7.339-43.307-12.544-18.347-7.595-36.309-17.152-56.107-20.352-1.468-0.148-3.173-0.233-4.897-0.233-0.498 0-0.995 0.007-1.49 0.021l0.073-0.002z"></path>
</svg>
